<svg width="204" height="53" viewBox="0 0 204 53" fill="none" xmlns="http://www.w3.org/2000/svg">
<path d="M200.42 14.9091V44H197.068V14.9091H200.42Z" fill="white"/>
<path d="M14.6591 14.9091H18.1818V35.7045C18.1818 37.5606 17.8409 39.1373 17.1591 40.4347C16.4773 41.732 15.5161 42.7169 14.2756 43.3892C13.035 44.0616 11.572 44.3977 9.88636 44.3977C8.29545 44.3977 6.87973 44.1089 5.6392 43.5312C4.39867 42.9441 3.4233 42.1108 2.71307 41.0312C2.00284 39.9517 1.64773 38.6686 1.64773 37.1818H5.11364C5.11364 38.0057 5.31723 38.7254 5.72443 39.3409C6.1411 39.947 6.70928 40.4205 7.42898 40.7614C8.14867 41.1023 8.9678 41.2727 9.88636 41.2727C10.8996 41.2727 11.7614 41.0597 12.4716 40.6335C13.1818 40.2074 13.7216 39.5824 14.0909 38.7585C14.4697 37.9252 14.6591 36.9072 14.6591 35.7045V14.9091ZM38.5369 35.0795V22.1818H41.8892V44H38.5369V40.3068H38.3097C37.7983 41.4148 37.0028 42.357 35.9233 43.1335C34.8438 43.9006 33.4801 44.2841 31.8324 44.2841C30.4688 44.2841 29.2566 43.9858 28.196 43.3892C27.1354 42.7831 26.3021 41.8741 25.696 40.6619C25.09 39.4403 24.7869 37.9015 24.7869 36.0455V22.1818H28.1392V35.8182C28.1392 37.4091 28.5843 38.678 29.4744 39.625C30.3741 40.572 31.5199 41.0455 32.9119 41.0455C33.7453 41.0455 34.5928 40.8324 35.4545 40.4062C36.3258 39.9801 37.0549 39.3267 37.642 38.446C38.2386 37.5653 38.5369 36.4432 38.5369 35.0795Z" fill="white"/>
<path d="M180 21.5V20.5C180 20.5 175.904 22 175.5 22.5C173.581 24.8784 171.803 28.45 172 31.5C172.175 34.207 173.758 36.4209 175.5 38.5C177.01 40.3021 180 41.5 180 41.5V40.5C180 40.5 176.967 38.3185 175.5 36.3125C174.313 34.6898 174 32 174 32H180V30.5H174C174 30.5 174.185 26.7422 175.5 25C176.917 23.1236 180 21.5 180 21.5Z" fill="white" stroke="#FFF9F9"/>
<path d="M182.064 36.3165C182.258 39.2588 184.223 42 185.456 42C186.69 42 189.19 40.4367 190.7 38.4105C192.195 36.4043 192.588 34.8892 192.859 32.4278C193.142 29.8487 193.076 28.1923 191.934 25.847C190.477 22.8557 186.06 20.5957 185.456 21.0609C184.852 21.526 184.562 20.9876 184.223 21.6591C183.244 23.593 184.744 24.9496 184.223 27.0435C183.815 28.6812 183.78 29.1334 182.989 30.6331C181.947 32.606 181.918 34.1046 182.064 36.3165Z" fill="#A2D06D" stroke="#A2D06D"/>
<path d="M62.78 25.5C63.9327 27.5 61.28 44 61.28 44H59.78C59.78 44 62.3964 30.2306 60.28 26.5C58.8476 23.9752 58.1795 22.6381 55.28 22.5C52.2458 22.3555 51.5362 24.0062 49.78 26.5C47.5084 29.7256 49.78 44 49.78 44H48.28C48.28 44 46.28 27.2064 47.28 25.5C48.9553 22.641 53.28 19.5 53.28 19.5C53.28 19.5 52.5874 3.86047 53.28 3C53.9726 2.13953 54.1754 1 55.28 1C56.3845 1 56.5904 2.1371 57.28 3C57.9695 3.8629 56.78 19.5 56.78 19.5C56.78 19.5 61.1253 22.629 62.78 25.5Z" fill="white" stroke="white"/>
<path d="M69.4205 30.875V44H66.0682V22.1818H69.3068V25.5909H69.5909C70.1023 24.483 70.8788 23.5928 71.9205 22.9205C72.9621 22.2386 74.3068 21.8977 75.9545 21.8977C77.4318 21.8977 78.7244 22.2008 79.8324 22.8068C80.9403 23.4034 81.8021 24.3125 82.4176 25.5341C83.0331 26.7462 83.3409 28.2803 83.3409 30.1364V44H79.9886V30.3636C79.9886 28.6496 79.5436 27.3144 78.6534 26.358C77.7633 25.392 76.5417 24.9091 74.9886 24.9091C73.9186 24.9091 72.9621 25.1411 72.1193 25.6051C71.286 26.0691 70.6278 26.7462 70.1449 27.6364C69.6619 28.5265 69.4205 29.6061 69.4205 30.875ZM98.2734 52.6364C96.6541 52.6364 95.2621 52.428 94.0973 52.0114C92.9325 51.6042 91.9619 51.0644 91.1854 50.392C90.4183 49.7292 89.8075 49.0189 89.353 48.2614L92.0234 46.3864C92.3265 46.7841 92.71 47.2386 93.174 47.75C93.638 48.2708 94.2725 48.7206 95.0774 49.0994C95.8918 49.4877 96.9571 49.6818 98.2734 49.6818C100.035 49.6818 101.488 49.2557 102.634 48.4034C103.78 47.5511 104.353 46.2159 104.353 44.3977V39.9659H104.069C103.823 40.3636 103.472 40.8561 103.018 41.4432C102.573 42.0208 101.929 42.5369 101.086 42.9915C100.253 43.4366 99.1257 43.6591 97.7053 43.6591C95.9439 43.6591 94.3625 43.2424 92.9609 42.4091C91.5689 41.5758 90.4657 40.3636 89.6513 38.7727C88.8464 37.1818 88.4439 35.25 88.4439 32.9773C88.4439 30.7424 88.8369 28.7964 89.6229 27.1392C90.4089 25.4725 91.5026 24.1847 92.9041 23.2756C94.3056 22.357 95.925 21.8977 97.7621 21.8977C99.1825 21.8977 100.309 22.1345 101.143 22.608C101.986 23.072 102.629 23.6023 103.075 24.1989C103.529 24.786 103.879 25.2689 104.126 25.6477H104.467V22.1818H107.705V44.625C107.705 46.5 107.279 48.0246 106.427 49.1989C105.584 50.3826 104.448 51.2491 103.018 51.7983C101.597 52.357 100.016 52.6364 98.2734 52.6364ZM98.1598 40.6477C99.5045 40.6477 100.641 40.34 101.569 39.7244C102.497 39.1089 103.202 38.2235 103.685 37.0682C104.168 35.9129 104.41 34.5303 104.41 32.9205C104.41 31.3485 104.173 29.9612 103.7 28.7585C103.226 27.5559 102.525 26.6136 101.597 25.9318C100.669 25.25 99.5234 24.9091 98.1598 24.9091C96.7393 24.9091 95.5556 25.2689 94.6087 25.9886C93.6712 26.7083 92.9657 27.6742 92.4922 28.8864C92.0282 30.0985 91.7962 31.4432 91.7962 32.9205C91.7962 34.4356 92.0329 35.7756 92.5064 36.9403C92.9893 38.0956 93.6996 39.0047 94.6371 39.6676C95.584 40.321 96.7583 40.6477 98.1598 40.6477ZM113.842 44V22.1818H117.08V25.4773H117.308C117.705 24.3977 118.425 23.5218 119.467 22.8494C120.508 22.1771 121.683 21.8409 122.989 21.8409C123.236 21.8409 123.543 21.8456 123.913 21.8551C124.282 21.8646 124.561 21.8788 124.751 21.8977V25.3068C124.637 25.2784 124.377 25.2358 123.969 25.179C123.572 25.1127 123.15 25.0795 122.705 25.0795C121.645 25.0795 120.698 25.3021 119.864 25.7472C119.04 26.1828 118.387 26.7888 117.904 27.5653C117.431 28.3324 117.194 29.2083 117.194 30.1932V44H113.842ZM135.145 44.5114C133.762 44.5114 132.508 44.2509 131.381 43.7301C130.254 43.1998 129.359 42.4375 128.696 41.4432C128.033 40.4394 127.702 39.2273 127.702 37.8068C127.702 36.5568 127.948 35.5436 128.44 34.767C128.933 33.9811 129.591 33.3655 130.415 32.9205C131.239 32.4754 132.148 32.1439 133.142 31.9261C134.146 31.6989 135.154 31.5189 136.168 31.3864C137.493 31.2159 138.568 31.0881 139.392 31.0028C140.225 30.9081 140.831 30.7519 141.21 30.5341C141.598 30.3163 141.793 29.9375 141.793 29.3977V29.2841C141.793 27.8826 141.409 26.7936 140.642 26.017C139.884 25.2405 138.734 24.8523 137.19 24.8523C135.59 24.8523 134.335 25.2027 133.426 25.9034C132.517 26.6042 131.878 27.3523 131.509 28.1477L128.327 27.0114C128.895 25.6856 129.652 24.6534 130.599 23.9148C131.556 23.1667 132.598 22.6458 133.724 22.3523C134.861 22.0492 135.978 21.8977 137.077 21.8977C137.777 21.8977 138.582 21.983 139.491 22.1534C140.41 22.3144 141.295 22.6506 142.148 23.1619C143.009 23.6733 143.724 24.4451 144.293 25.4773C144.861 26.5095 145.145 27.892 145.145 29.625V44H141.793V41.0455H141.622C141.395 41.5189 141.016 42.0256 140.486 42.5653C139.955 43.1051 139.25 43.5644 138.369 43.9432C137.489 44.322 136.414 44.5114 135.145 44.5114ZM135.656 41.5C136.982 41.5 138.099 41.2396 139.009 40.7188C139.927 40.1979 140.618 39.5256 141.082 38.7017C141.556 37.8778 141.793 37.0114 141.793 36.1023V33.0341C141.651 33.2045 141.338 33.3608 140.855 33.5028C140.382 33.6354 139.832 33.7538 139.207 33.858C138.592 33.9527 137.991 34.0379 137.403 34.1136C136.826 34.1799 136.357 34.2367 135.997 34.2841C135.126 34.3977 134.312 34.5824 133.554 34.8381C132.806 35.0843 132.2 35.4583 131.736 35.9602C131.281 36.4527 131.054 37.125 131.054 37.9773C131.054 39.142 131.485 40.0227 132.347 40.6193C133.218 41.2064 134.321 41.5 135.656 41.5ZM154.616 30.875V44H151.263V22.1818H154.502V25.5909H154.786C155.298 24.483 156.074 23.5928 157.116 22.9205C158.157 22.2386 159.502 21.8977 161.15 21.8977C162.627 21.8977 163.92 22.2008 165.028 22.8068C166.136 23.4034 166.997 24.3125 167.613 25.5341C168.228 26.7462 168.536 28.2803 168.536 30.1364V44H165.184V30.3636C165.184 28.6496 164.739 27.3144 163.849 26.358C162.959 25.392 161.737 24.9091 160.184 24.9091C159.114 24.9091 158.157 25.1411 157.315 25.6051C156.481 26.0691 155.823 26.7462 155.34 27.6364C154.857 28.5265 154.616 29.6061 154.616 30.875Z" fill="white"/>
</svg>
