<svg width="25" height="23" viewBox="0 0 25 23" fill="none" xmlns="http://www.w3.org/2000/svg">
<path d="M13.0635 16.3165C13.2578 19.2589 15.2226 22 16.4564 22C17.6901 22 20.1898 20.4367 21.6998 18.4105C23.1949 16.4043 23.5883 14.8892 23.8589 12.4278C24.1424 9.84868 24.0759 8.19226 22.9336 5.84697C21.4766 2.85567 17.2172 1.10927 16.4563 1.06086C15.5 1.00001 15.5252 1.06086 15.2226 1.65914C14.2444 3.59299 15.7436 4.94956 15.2226 7.04348C14.8151 8.68124 14.7804 9.13337 13.9889 10.6331C12.9474 12.606 12.9175 14.1046 13.0635 16.3165Z" fill="#E1E1E1" stroke="#EBEBEB"/>
<path d="M12.5697 1V2.82609C12.5697 2.82609 8.67708 2.91034 6.78486 4.19565C4.39039 5.82213 3.41036 10.587 3.41036 10.587H10.6414V12.413H3.41036C3.41036 12.413 4.39039 17.1779 6.78486 18.8043C8.67708 20.0897 12.5697 20.1739 12.5697 20.1739V22C12.5697 22 14.0159 22 11.6056 22C5.74828 22 1 17.299 1 11.5C1 5.70101 5.26621 1 11.1235 1C14.0159 1 12.5697 1 12.5697 1Z" fill="#E1E1E1" stroke="#EBEBEB"/>
</svg>
